<svg fill="#FFFFFF" xmlns="http://www.w3.org/2000/svg"  viewBox="0 0 48 48" width="50px" height="50px"><path d="M 11.5 6 C 8.4802259 6 6 8.4802259 6 11.5 L 6 18.064453 A 1.50015 1.50015 0 1 0 9 18.064453 L 9 11.5 C 9 10.101774 10.101774 9 11.5 9 L 36.5 9 C 37.898226 9 39 10.101774 39 11.5 L 39 22.830078 A 1.50015 1.50015 0 1 0 42 22.830078 L 42 11.5 C 42 8.4802259 39.519774 6 36.5 6 L 11.5 6 z M 13.828125 14 L 21.564453 25.056641 L 13.822266 34 L 15.865234 34 L 22.46875 26.351562 L 27.820312 34 L 34.257812 34 L 26.025391 22.234375 L 33.136719 14 L 31.136719 14 L 25.123047 20.943359 L 20.265625 14 L 13.828125 14 z M 16.935547 15.695312 L 19.498047 15.695312 L 31.150391 32.304688 L 28.587891 32.304688 L 16.935547 15.695312 z M 7.4765625 24.478516 A 1.50015 1.50015 0 0 0 6 26 L 6 36.5 C 6 39.519774 8.4802259 42 11.5 42 L 36.5 42 C 39.519774 42 42 39.519774 42 36.5 L 42 31.5 A 1.50015 1.50015 0 1 0 39 31.5 L 39 36.5 C 39 37.898226 37.898226 39 36.5 39 L 11.5 39 C 10.101774 39 9 37.898226 9 36.5 L 9 26 A 1.50015 1.50015 0 0 0 7.4765625 24.478516 z"/></svg>